<?xml version="1.0" encoding="UTF-8"?>
<!DOCTYPE svg PUBLIC "-//W3C//DTD SVG 1.1//EN" "http://www.w3.org/Graphics/SVG/1.1/DTD/svg11.dtd">
<svg xmlns="http://www.w3.org/2000/svg" version="1.1" width="64px" height="64px" style="shape-rendering:geometricPrecision; text-rendering:geometricPrecision; image-rendering:optimizeQuality; fill-rule:evenodd; clip-rule:evenodd" xmlns:xlink="http://www.w3.org/1999/xlink">
<g><path style="opacity:0.977" fill="#7223c1" d="M 12.5,-0.5 C 25.1667,-0.5 37.8333,-0.5 50.5,-0.5C 52.2608,0.312714 53.9275,1.31271 55.5,2.5C 39.5,2.5 23.5,2.5 7.5,2.5C 9.07249,1.31271 10.7392,0.312714 12.5,-0.5 Z"/></g>
<g><path style="opacity:0.965" fill="#7b22b8" d="M 7.5,2.5 C 23.5,2.5 39.5,2.5 55.5,2.5C 56.5,2.83333 57.1667,3.5 57.5,4.5C 40.1667,4.5 22.8333,4.5 5.5,4.5C 5.83333,3.5 6.5,2.83333 7.5,2.5 Z"/></g>
<g><path style="opacity:0.959" fill="#8620ae" d="M 5.5,4.5 C 22.8333,4.5 40.1667,4.5 57.5,4.5C 59.5869,5.58457 60.9202,7.25124 61.5,9.5C 58.5,9.5 55.5,9.5 52.5,9.5C 50.8599,8.67994 49.1932,7.84661 47.5,7C 36.8333,6.33333 26.1667,6.33333 15.5,7C 12.4048,7.93541 10.0714,9.76874 8.5,12.5C 5.83333,12.5 3.16667,12.5 0.5,12.5C 0.651563,8.85932 2.31823,6.19265 5.5,4.5 Z"/></g>
<g><path style="opacity:0.896" fill="#9b1e9a" d="M 52.5,9.5 C 55.5,9.5 58.5,9.5 61.5,9.5C 62.1667,10.5 62.8333,11.5 63.5,12.5C 63.5,14.1667 63.5,15.8333 63.5,17.5C 61.1667,17.5 58.8333,17.5 56.5,17.5C 55.6916,14.5498 54.3582,11.8831 52.5,9.5 Z"/></g>
<g><path style="opacity:1" fill="#a01d95" d="M 46.5,10.5 C 52.6426,11.0262 53.9759,13.8595 50.5,19C 45.5023,20.3297 43.3357,18.4964 44,13.5C 44.6979,12.3094 45.5313,11.3094 46.5,10.5 Z"/></g>
<g><path style="opacity:0.883" fill="#a11d94" d="M -0.5,12.5 C -0.166667,12.5 0.166667,12.5 0.5,12.5C 3.16667,12.5 5.83333,12.5 8.5,12.5C 7.5592,14.0495 6.89254,15.7162 6.5,17.5C 4.16667,17.5 1.83333,17.5 -0.5,17.5C -0.5,15.8333 -0.5,14.1667 -0.5,12.5 Z"/></g>
<g><path style="opacity:0.959" fill="#a81c91" d="M 42.5,18.5 C 35.1667,18.5 27.8333,18.5 20.5,18.5C 27.8333,13.1667 35.1667,13.1667 42.5,18.5 Z"/></g>
<g><path style="opacity:0.86" fill="#b01b86" d="M -0.5,17.5 C 1.83333,17.5 4.16667,17.5 6.5,17.5C 6.5,18.8333 6.5,20.1667 6.5,21.5C 4.16667,21.5 1.83333,21.5 -0.5,21.5C -0.5,20.1667 -0.5,18.8333 -0.5,17.5 Z"/></g>
<g><path style="opacity:0.982" fill="#b41a84" d="M 20.5,18.5 C 27.8333,18.5 35.1667,18.5 42.5,18.5C 44.543,19.5794 45.8763,21.246 46.5,23.5C 43.5,23.5 40.5,23.5 37.5,23.5C 33.5,22.1667 29.5,22.1667 25.5,23.5C 22.5,23.5 19.5,23.5 16.5,23.5C 17.1237,21.246 18.457,19.5794 20.5,18.5 Z"/></g>
<g><path style="opacity:0.86" fill="#b01b86" d="M 56.5,17.5 C 58.8333,17.5 61.1667,17.5 63.5,17.5C 63.5,18.8333 63.5,20.1667 63.5,21.5C 61.1667,21.5 58.8333,21.5 56.5,21.5C 56.5,20.1667 56.5,18.8333 56.5,17.5 Z"/></g>
<g><path style="opacity:0.888" fill="#c01c73" d="M -0.5,21.5 C 1.83333,21.5 4.16667,21.5 6.5,21.5C 6.5,24.1667 6.5,26.8333 6.5,29.5C 4.16667,29.5 1.83333,29.5 -0.5,29.5C -0.5,26.8333 -0.5,24.1667 -0.5,21.5 Z"/></g>
<g><path style="opacity:0.893" fill="#c11e72" d="M 16.5,23.5 C 19.5,23.5 22.5,23.5 25.5,23.5C 23.1289,25.9966 22.1289,28.9966 22.5,32.5C 20.1998,30.7982 17.5331,30.1315 14.5,30.5C 14.767,28.0347 15.4336,25.7014 16.5,23.5 Z"/></g>
<g><path style="opacity:0.893" fill="#c11e72" d="M 37.5,23.5 C 40.5,23.5 43.5,23.5 46.5,23.5C 47.5664,25.7014 48.233,28.0347 48.5,30.5C 45.4669,30.1315 42.8002,30.7982 40.5,32.5C 40.8711,28.9966 39.8711,25.9966 37.5,23.5 Z"/></g>
<g><path style="opacity:0.888" fill="#c01c73" d="M 56.5,21.5 C 58.8333,21.5 61.1667,21.5 63.5,21.5C 63.5,24.1667 63.5,26.8333 63.5,29.5C 61.1667,29.5 58.8333,29.5 56.5,29.5C 56.5,26.8333 56.5,24.1667 56.5,21.5 Z"/></g>
<g><path style="opacity:0.957" fill="#c42f63" d="M -0.5,29.5 C 1.83333,29.5 4.16667,29.5 6.5,29.5C 6.5,31.8333 6.5,34.1667 6.5,36.5C 4.16667,36.5 1.83333,36.5 -0.5,36.5C -0.5,34.1667 -0.5,31.8333 -0.5,29.5 Z"/></g>
<g><path style="opacity:0.957" fill="#c42f63" d="M 56.5,29.5 C 58.8333,29.5 61.1667,29.5 63.5,29.5C 63.5,31.8333 63.5,34.1667 63.5,36.5C 61.1667,36.5 58.8333,36.5 56.5,36.5C 56.5,34.1667 56.5,31.8333 56.5,29.5 Z"/></g>
<g><path style="opacity:0.862" fill="#c4365e" d="M 14.5,30.5 C 17.5331,30.1315 20.1998,30.7982 22.5,32.5C 22.6878,35.2061 23.6878,37.5395 25.5,39.5C 22.5,39.5 19.5,39.5 16.5,39.5C 15.0721,36.6967 14.4054,33.6967 14.5,30.5 Z"/></g>
<g><path style="opacity:0.862" fill="#c4365e" d="M 48.5,30.5 C 48.5946,33.6967 47.9279,36.6967 46.5,39.5C 43.5,39.5 40.5,39.5 37.5,39.5C 39.3122,37.5395 40.3122,35.2061 40.5,32.5C 42.8002,30.7982 45.4669,30.1315 48.5,30.5 Z"/></g>
<g><path style="opacity:0.972" fill="#c74350" d="M 16.5,39.5 C 19.5,39.5 22.5,39.5 25.5,39.5C 29.5,40.8333 33.5,40.8333 37.5,39.5C 40.5,39.5 43.5,39.5 46.5,39.5C 45.9744,41.2303 44.9744,42.5637 43.5,43.5C 35.5,43.5 27.5,43.5 19.5,43.5C 18.0256,42.5637 17.0256,41.2303 16.5,39.5 Z"/></g>
<g><path style="opacity:0.92" fill="#c64254" d="M -0.5,36.5 C 1.83333,36.5 4.16667,36.5 6.5,36.5C 6.5,38.8333 6.5,41.1667 6.5,43.5C 4.16667,43.5 1.83333,43.5 -0.5,43.5C -0.5,41.1667 -0.5,38.8333 -0.5,36.5 Z"/></g>
<g><path style="opacity:0.838" fill="#c9514b" d="M 19.5,43.5 C 27.5,43.5 35.5,43.5 43.5,43.5C 35.5,50.1667 27.5,50.1667 19.5,43.5 Z"/></g>
<g><path style="opacity:0.922" fill="#c74c4f" d="M 56.5,36.5 C 58.8333,36.5 61.1667,36.5 63.5,36.5C 63.5,40.1667 63.5,43.8333 63.5,47.5C 61.1667,47.5 58.8333,47.5 56.5,47.5C 56.5,43.8333 56.5,40.1667 56.5,36.5 Z"/></g>
<g><path style="opacity:0.841" fill="#cb594a" d="M -0.5,43.5 C 1.83333,43.5 4.16667,43.5 6.5,43.5C 6.51715,45.5648 6.85048,47.5648 7.5,49.5C 4.83333,49.5 2.16667,49.5 -0.5,49.5C -0.5,47.5 -0.5,45.5 -0.5,43.5 Z"/></g>
<g><path style="opacity:0.901" fill="#d16a45" d="M 56.5,47.5 C 58.8333,47.5 61.1667,47.5 63.5,47.5C 63.5,48.5 63.5,49.5 63.5,50.5C 62.6873,52.2608 61.6873,53.9275 60.5,55.5C 57.7131,54.5233 54.7131,54.19 51.5,54.5C 53.4244,52.305 55.0911,49.9717 56.5,47.5 Z"/></g>
<g><path style="opacity:0.736" fill="#d57a43" d="M -0.5,50.5 C -0.5,50.1667 -0.5,49.8333 -0.5,49.5C 2.16667,49.5 4.83333,49.5 7.5,49.5C 9.37197,52.5287 12.0386,54.6954 15.5,56C 26.1667,56.6667 36.8333,56.6667 47.5,56C 48.745,55.2086 50.0783,54.7086 51.5,54.5C 54.7131,54.19 57.7131,54.5233 60.5,55.5C 59.8333,56.8333 58.8333,57.8333 57.5,58.5C 40.1667,57.1667 22.8333,57.1667 5.5,58.5C 2.51528,56.513 0.515285,53.8463 -0.5,50.5 Z"/></g>
<g><path style="opacity:0.997" fill="#da8840" d="M 57.5,58.5 C 57.1667,59.5 56.5,60.1667 55.5,60.5C 39.5,60.5 23.5,60.5 7.5,60.5C 6.5,60.1667 5.83333,59.5 5.5,58.5C 22.8333,57.1667 40.1667,57.1667 57.5,58.5 Z"/></g>
<g><path style="opacity:0.957" fill="#de973d" d="M 7.5,60.5 C 23.5,60.5 39.5,60.5 55.5,60.5C 53.9275,61.6873 52.2608,62.6873 50.5,63.5C 37.8333,63.5 25.1667,63.5 12.5,63.5C 10.7392,62.6873 9.07249,61.6873 7.5,60.5 Z"/></g>
</svg>
